<?xml version="1.0" encoding="UTF-8"?><svg id="Layer_1" xmlns="http://www.w3.org/2000/svg" viewBox="0 0 1006.67 237.45"><defs><style>.cls-1{fill:#6299bc;}</style></defs><g><path class="cls-1" d="m389.97,100.85c4.21.71,7.75,1.72,10.62,3.01,2.87,1.3,5.18,2.98,6.93,5.03,1.75,2.06,3.01,4.52,3.77,7.39.76,2.87,1.15,6.23,1.15,10.08v2.28c0,4.3-.57,8.07-1.73,11.29-1.16,3.23-3.13,5.92-5.91,8.07-2.78,2.15-6.45,3.77-11.02,4.85-4.57,1.08-10.26,1.62-17.07,1.63-2.78,0-6.83,0-12.16.01-5.33,0-12.16-.08-20.5-.25l2.41-12.64c3.58.09,6.74.15,9.48.19,2.73.04,5.26.06,7.59.06,2.33,0,4.52,0,6.59,0,2.06,0,4.25,0,6.59,0,4.39,0,8-.21,10.82-.61,2.82-.41,5.04-1.12,6.65-2.16,1.61-1.03,2.71-2.42,3.29-4.17.58-1.75.87-3.97.87-6.65,0-2.33-.16-4.3-.48-5.91-.32-1.61-.94-2.98-1.89-4.1-.94-1.12-2.31-2.04-4.1-2.75-1.79-.71-4.17-1.34-7.12-1.88l-18.15-2.94c-4.48-.71-8.18-1.76-11.09-3.15-2.91-1.39-5.2-3.09-6.86-5.1-1.66-2.01-2.81-4.39-3.43-7.12-.63-2.73-.95-5.85-.95-9.34v-2.55c0-3.85.6-7.33,1.8-10.42s3.17-5.74,5.91-7.94c2.73-2.2,6.31-3.88,10.75-5.05,4.43-1.17,9.92-1.76,16.46-1.76,2.51,0,4.79,0,6.85,0,2.06,0,4.21,0,6.45,0,2.24,0,4.68.02,7.32.06,2.64.04,5.85.11,9.61.19l-2.41,12.64c-6.36-.17-11.78-.26-16.26-.25-4.48,0-8.74,0-12.77.01-3.94,0-7.19.21-9.74.61-2.55.41-4.57,1.13-6.05,2.16-1.48,1.03-2.48,2.38-3.02,4.03-.54,1.66-.8,3.74-.8,6.25,0,2.15.16,3.99.48,5.51.31,1.52.92,2.82,1.82,3.9.9,1.07,2.2,1.97,3.9,2.68,1.7.72,3.94,1.3,6.72,1.74l18.68,3.07Z"/><path class="cls-1" d="m424.56,154.17l-.05-49.06c0-8.06,2.47-13.85,7.44-17.35,4.97-3.5,12.74-5.25,23.31-5.26,10.57-.01,18.35,1.73,23.32,5.22,4.98,3.49,7.47,9.27,7.48,17.33l.05,49.06h-14.11s-.04-46.22-.04-46.22c0-2.24-.14-4.21-.41-5.91-.27-1.7-.94-3.13-2.02-4.3-1.08-1.16-2.74-2.03-4.98-2.62-2.24-.58-5.33-.87-9.27-.87-3.94,0-7.04.3-9.27.88-2.24.59-3.9,1.46-4.97,2.63-1.07,1.17-1.74,2.6-2.01,4.3-.27,1.7-.4,3.68-.4,5.91l.04,46.23h-14.11Z"/><path class="cls-1" d="m532.42,82.43c5.82,0,10.77.51,14.85,1.53,4.08,1.03,7.42,2.82,10.02,5.37,2.6,2.55,4.51,5.96,5.72,10.21,1.21,4.26,1.82,9.61,1.83,16.06v7.39c.01,6.45-.59,11.81-1.79,16.06-1.21,4.26-3.11,7.66-5.7,10.22-2.6,2.56-5.93,4.35-10.01,5.39-4.08,1.03-9.03,1.55-14.85,1.56-5.83,0-10.78-.51-14.85-1.53-4.08-1.02-7.42-2.82-10.02-5.37-2.6-2.55-4.51-5.95-5.72-10.21-1.21-4.25-1.82-9.61-1.83-16.06v-7.39c-.01-6.45.59-11.8,1.79-16.06,1.21-4.26,3.1-7.66,5.7-10.22,2.59-2.56,5.93-4.35,10.01-5.39,4.08-1.03,9.02-1.55,14.85-1.56Zm18.04,33.18c0-4.75-.26-8.53-.75-11.36-.5-2.82-1.39-4.99-2.69-6.52-1.3-1.52-3.12-2.53-5.45-3.02-2.33-.49-5.38-.73-9.14-.73-3.76,0-6.81.25-9.14.75-2.33.5-4.14,1.51-5.44,3.03-1.3,1.53-2.19,3.7-2.68,6.52-.49,2.82-.73,6.61-.73,11.36v7.39c.01,4.75.26,8.53.76,11.36.5,2.82,1.39,5,2.69,6.52,1.3,1.52,3.12,2.53,5.45,3.02,2.33.49,5.38.73,9.14.73,3.76,0,6.81-.25,9.14-.75,2.33-.49,4.14-1.5,5.44-3.03,1.3-1.52,2.19-3.7,2.68-6.52.49-2.82.73-6.61.73-11.36v-7.39Z"/><path class="cls-1" d="m622.75,101.43l-13.93,52.56h-14.52s-20.63-69.45-20.63-69.45h14.11s13.9,54.67,13.9,54.67l14.6-54.71h13.71s14.03,54.94,14.03,54.94l14.6-54.98h13.17s-20.9,69.49-20.9,69.49h-14.51s-13.62-52.52-13.62-52.52Z"/><path class="cls-1" d="m713.02,53.77c1.97,0,3.78.02,5.44.06,1.66.04,3.11.11,4.37.2l-2.41,11.7c-.99-.09-2.04-.15-3.16-.2-1.12-.04-1.91-.07-2.35-.06-3.85,0-6.99.23-9.41.68-2.42.45-4.3,1.37-5.64,2.76-1.34,1.39-2.26,3.32-2.75,5.78-.49,2.47-.73,5.71-.73,9.74l21.64-.02-2.41,11.69-19.22.02.06,57.79h-14.11s-.07-68.8-.07-68.8c0-5.73.5-10.57,1.53-14.52,1.03-3.94,2.73-7.17,5.1-9.68,2.37-2.51,5.53-4.33,9.47-5.45,3.94-1.12,8.82-1.69,14.65-1.69Zm16.53.25h14.11s.1,99.85.1,99.85h-14.11s-.1-99.85-.1-99.85Z"/><path class="cls-1" d="m789.86,155.97c-10.13,0-17.74-1.69-22.85-5.08s-7.67-9.22-7.68-17.46l-.05-49.06h14.11s.04,46.22.04,46.22c0,2.24.14,4.21.41,5.91.27,1.7.94,3.14,2.02,4.3,1.08,1.17,2.71,2.04,4.91,2.62,2.2.58,5.22.87,9.07.87,3.85,0,6.85-.3,9-.88,2.15-.58,3.76-1.46,4.84-2.62,1.07-1.16,1.75-2.6,2.01-4.3.27-1.7.4-3.67.4-5.91l-.04-46.23h14.11s.05,49.04.05,49.04c0,8.24-2.54,14.07-7.64,17.48s-12.67,5.12-22.71,5.13Z"/><path class="cls-1" d="m835.82,153.78l-.05-47.58c0-4.03.62-7.46,1.87-10.28,1.25-2.82,3.02-5.11,5.3-6.86,2.28-1.75,5.04-3.03,8.26-3.84,3.23-.81,6.81-1.22,10.75-1.22,4.3,0,7.61,0,9.95,0,2.33,0,4.25.04,5.78.13l-2.41,11.69c-.09,0-.54,0-1.34,0s-1.79-.02-2.96-.06c-1.17-.04-2.42-.06-3.76-.06-1.34,0-2.64,0-3.9,0-3.14,0-5.6.3-7.39.88-1.79.59-3.14,1.46-4.03,2.62-.9,1.17-1.45,2.6-1.68,4.3-.22,1.7-.33,3.63-.33,5.78l.04,44.49h-14.11Z"/><path class="cls-1" d="m886.89,153.73l-.05-47.58c0-4.03.62-7.46,1.87-10.28,1.25-2.82,3.02-5.11,5.3-6.86,2.28-1.75,5.04-3.03,8.26-3.84,3.23-.81,6.81-1.22,10.75-1.22,4.3,0,7.61,0,9.95,0,2.33,0,4.25.04,5.78.13l-2.41,11.7c-.09,0-.54,0-1.34,0-.81,0-1.79-.02-2.96-.06-1.17-.04-2.42-.06-3.76-.06-1.34,0-2.64,0-3.9,0-3.14,0-5.6.3-7.39.88-1.79.59-3.14,1.46-4.03,2.62-.9,1.17-1.45,2.6-1.68,4.3-.22,1.7-.33,3.63-.33,5.78l.04,44.49h-14.11Z"/><path class="cls-1" d="m944.56,165.5c4.48.17,8.38.26,11.69.26,3.31,0,6.72,0,10.21,0,3.31,0,6.13-.3,8.47-.88,2.33-.59,4.23-1.57,5.71-2.96,1.48-1.39,2.53-3.3,3.15-5.71.62-2.42.94-5.51.93-9.27v-1.48c-.81.72-1.7,1.44-2.69,2.15-.99.72-2.22,1.35-3.69,1.89-1.48.54-3.32.97-5.51,1.28-2.2.32-4.91.48-8.13.48-8.6,0-15.21-1.62-19.83-4.89-4.62-3.27-6.93-9.02-6.94-17.26l-.04-44.89h14.11s.04,41.65.04,41.65c0,2.24.12,4.21.34,5.91.22,1.7.81,3.14,1.75,4.3.94,1.17,2.42,2.04,4.44,2.62,2.02.58,4.77.87,8.27.87,3.85,0,6.94-.25,9.27-.75,2.33-.49,4.12-1.35,5.37-2.56,1.25-1.21,2.1-2.78,2.55-4.71.45-1.93.67-4.32.67-7.19l-.04-40.19h14.11s.06,62.75.06,62.75c0,5.56-.59,10.26-1.8,14.11-1.21,3.85-3.13,6.99-5.77,9.41-2.64,2.42-6,4.19-10.07,5.32-4.08,1.12-8.94,1.69-14.58,1.69-2.06,0-3.99,0-5.78,0-1.79,0-3.63,0-5.51,0-1.88,0-3.9-.02-6.05-.06-2.15-.04-4.57-.11-7.26-.2l2.54-11.7Z"/></g><g><path class="cls-1" d="m32.31,104.61h142.57c8.41,0,12.24-3.89,12.24-7.51s-3.79-7.33-12.24-7.33H12.24c-5.84,0-8.48-1.92-8.48-3.28s2.7-3.41,8.48-3.41h156.38c8.92,0,12.99-3.83,12.99-7.39,0-1.22-.49-3.51-3.73-5.22-2.26-1.19-5.46-1.82-9.26-1.82H37.32c-6.01,0-8.71-1.98-8.71-3.38s2.77-3.52,8.71-3.52h122.5c8.49,0,12.36-3.82,12.36-7.36s-3.82-7.27-12.36-7.27h-93.65c-3.61,0-5.64-.74-6.7-1.36-.98-.57-1.55-1.27-1.55-1.93,0-1.46,2.63-3.61,8.25-3.61h82.37c1.04,0,1.88-.84,1.88-1.88s-.84-1.88-1.88-1.88h-82.37c-8.25,0-12.01,3.82-12.01,7.37,0,2.04,1.25,3.93,3.42,5.19,2.1,1.21,5.07,1.86,8.59,1.86h93.65c5.93,0,8.59,2.05,8.59,3.51s-2.73,3.6-8.59,3.6H37.32c-8.57,0-12.47,3.77-12.47,7.28s3.85,7.14,12.47,7.14h131.29c4.03,0,6.31.75,7.51,1.38,1.08.57,1.71,1.27,1.71,1.89,0,1.27-2.71,3.63-9.22,3.63H12.24c-8.41,0-12.24,3.72-12.24,7.17s3.78,7.04,12.24,7.04h162.65c6.17,0,8.48,2.19,8.48,3.57,0,1.56-2.63,3.75-8.48,3.75H32.31c-3.57,0-6.62.66-8.83,1.9-2.3,1.3-3.61,3.22-3.61,5.29,0,3.52,3.85,7.08,12.45,7.08h132.54c5.78,0,8.47,2,8.47,3.35s-2.7,3.39-8.47,3.39H51.11c-3.53,0-6.54.67-8.71,1.95-2.23,1.31-3.52,3.26-3.52,5.34,0,3.63,3.78,7.29,12.23,7.29,13.05,0,33.72-.04,54.59-.08,21.29-.04,42.79-.08,56.63-.08,1.04,0,1.88-.84,1.88-1.88s-.84-1.88-1.88-1.88c-13.84,0-35.35.04-56.64.08-20.87.04-41.53.08-54.58.08-5.84,0-8.47-2.06-8.47-3.53,0-.71.6-1.47,1.66-2.09,1.11-.65,3.19-1.43,6.81-1.43h113.74c8.45,0,12.23-3.59,12.23-7.15s-3.78-7.12-12.23-7.12H32.31c-5.92,0-8.69-1.98-8.69-3.31,0-1.38,2.76-3.42,8.69-3.42Z"/><path class="cls-1" d="m12.4,212.81c-.67,1.17-2.29,1.61-3.46.93-1.21-.7-1.63-2.25-.93-3.46.45-.78,1.29-1.27,2.2-1.27.44,0,.88.12,1.26.34,1.21.7,1.63,2.25.93,3.46Zm.95-6.72c-.95-.55-2.04-.84-3.14-.84-2.25,0-4.34,1.21-5.46,3.16-1.73,3.01-.69,6.87,2.32,8.6.95.55,2.04.84,3.13.84,2.25,0,4.33-1.21,5.46-3.16,1.73-3.01.69-6.87-2.31-8.6Z"/><path class="cls-1" d="m28.16,212.81c-.67,1.16-2.28,1.61-3.46.93-1.21-.7-1.63-2.25-.93-3.46.45-.78,1.29-1.27,2.2-1.27.44,0,.87.12,1.27.34.59.34,1.01.88,1.19,1.54.17.66.08,1.34-.26,1.93Zm.94-6.72c-.96-.55-2.04-.84-3.14-.84-2.24,0-4.34,1.21-5.45,3.16-1.73,3.01-.69,6.87,2.31,8.6.96.55,2.04.84,3.13.84,2.25,0,4.34-1.21,5.47-3.16.84-1.46,1.05-3.16.62-4.78-.44-1.62-1.48-2.98-2.95-3.82Z"/><path class="cls-1" d="m43.91,212.81c-.67,1.17-2.29,1.61-3.46.93-1.21-.7-1.63-2.25-.93-3.46.45-.78,1.29-1.27,2.2-1.27.44,0,.87.12,1.26.34,1.21.7,1.63,2.25.93,3.46Zm.94-6.72c-.96-.55-2.04-.84-3.13-.84-2.25,0-4.34,1.21-5.46,3.16-1.73,3.01-.69,6.87,2.32,8.6.95.55,2.04.84,3.14.84,2.25,0,4.33-1.21,5.45-3.16,1.74-3.01.7-6.87-2.31-8.6Z"/><path class="cls-1" d="m59.66,212.81c-.67,1.17-2.29,1.61-3.46.93-1.21-.7-1.63-2.25-.93-3.46.45-.78,1.3-1.27,2.2-1.27.44,0,.88.12,1.26.34,1.21.7,1.63,2.25.93,3.46Zm.95-6.72c-.96-.55-2.05-.84-3.14-.84-2.25,0-4.34,1.21-5.46,3.16-1.73,3.01-.69,6.87,2.32,8.6.96.55,2.03.84,3.13.84,2.25,0,4.33-1.21,5.46-3.16,1.73-3.01.69-6.87-2.31-8.6Z"/><path class="cls-1" d="m75.41,212.81c-.66,1.16-2.28,1.61-3.46.93-1.21-.7-1.63-2.25-.93-3.46.45-.78,1.29-1.27,2.2-1.27.44,0,.88.12,1.27.34.59.34,1.01.88,1.19,1.54.17.66.08,1.34-.26,1.93Zm.95-6.72c-.96-.55-2.04-.84-3.14-.84-2.25,0-4.33,1.21-5.45,3.16-1.73,3.01-.69,6.87,2.31,8.6.96.55,2.04.84,3.14.84,2.25,0,4.33-1.21,5.46-3.16.84-1.46,1.07-3.16.62-4.78-.43-1.62-1.48-2.98-2.94-3.82Z"/><path class="cls-1" d="m91.17,212.81c-.67,1.16-2.29,1.61-3.47.93-1.21-.7-1.63-2.25-.93-3.46.45-.78,1.29-1.27,2.2-1.27.44,0,.88.12,1.27.34,1.21.7,1.63,2.25.93,3.46Zm.95-6.72c-.96-.55-2.04-.84-3.14-.84-2.24,0-4.33,1.21-5.45,3.16-1.73,3.01-.7,6.87,2.31,8.6.96.55,2.05.84,3.14.84,2.25,0,4.34-1.21,5.47-3.16,1.73-3.01.69-6.87-2.32-8.6Z"/><path class="cls-1" d="m106.92,212.81c-.66,1.16-2.28,1.61-3.46.93-1.21-.7-1.63-2.25-.93-3.46.46-.78,1.3-1.27,2.2-1.27.44,0,.87.12,1.26.34,1.21.7,1.62,2.25.93,3.46Zm.95-6.72c-.96-.55-2.04-.84-3.14-.84-2.25,0-4.34,1.21-5.46,3.16-1.73,3.01-.69,6.87,2.32,8.6.96.55,2.04.84,3.13.84,2.25,0,4.35-1.21,5.46-3.16,1.73-3.01.69-6.87-2.31-8.6Z"/><path class="cls-1" d="m122.67,212.81c-.66,1.16-2.28,1.61-3.46.93-1.21-.7-1.63-2.25-.93-3.46.45-.78,1.29-1.27,2.2-1.27.44,0,.88.12,1.26.34.59.34,1.01.88,1.18,1.54.18.66.08,1.34-.25,1.93Zm.95-6.72c-.96-.55-2.05-.84-3.14-.84-2.25,0-4.34,1.21-5.46,3.16-1.73,3.01-.69,6.87,2.32,8.6.95.55,2.03.84,3.13.84,2.25,0,4.34-1.21,5.46-3.16.84-1.46,1.06-3.16.62-4.78-.44-1.62-1.48-2.98-2.94-3.82Z"/><path class="cls-1" d="m21.65,196.93c-.67,1.17-2.29,1.61-3.46.93-1.21-.7-1.63-2.25-.93-3.46.45-.78,1.29-1.27,2.2-1.27.44,0,.87.12,1.26.34,1.21.7,1.63,2.25.93,3.46Zm3.26,1.88c1.73-3.01.7-6.87-2.31-8.6-.96-.55-2.04-.84-3.14-.84-2.25,0-4.34,1.21-5.46,3.16-1.73,3.01-.7,6.87,2.31,8.6.96.55,2.04.84,3.14.84,2.24,0,4.34-1.21,5.46-3.16Z"/><path class="cls-1" d="m37.41,196.93c-.67,1.17-2.28,1.61-3.46.93-1.21-.7-1.63-2.25-.94-3.46.46-.78,1.3-1.27,2.2-1.27.44,0,.88.12,1.26.34.59.34,1.01.88,1.18,1.54.18.66.09,1.34-.25,1.92Zm3.26,1.88c.84-1.46,1.06-3.16.62-4.78s-1.48-2.98-2.94-3.82c-.95-.55-2.04-.84-3.14-.84-2.25,0-4.34,1.21-5.46,3.16-1.73,3.01-.69,6.87,2.32,8.6.96.55,2.04.84,3.14.84,2.25,0,4.34-1.21,5.46-3.16Z"/><path class="cls-1" d="m53.16,196.93c-.67,1.17-2.29,1.61-3.46.93-1.22-.7-1.63-2.25-.93-3.46.46-.78,1.3-1.27,2.2-1.27.44,0,.87.12,1.26.34,1.21.7,1.63,2.25.93,3.46Zm3.26,1.88c1.73-3.01.69-6.87-2.31-8.6-.96-.55-2.04-.84-3.14-.84-2.25,0-4.35,1.21-5.46,3.16-1.73,3.01-.69,6.87,2.31,8.6.96.55,2.04.84,3.14.84,2.24,0,4.34-1.21,5.46-3.16Z"/><path class="cls-1" d="m68.91,196.93c-.67,1.17-2.29,1.61-3.46.93-1.21-.7-1.63-2.25-.93-3.46.46-.78,1.29-1.27,2.2-1.27.44,0,.88.12,1.26.34,1.21.7,1.63,2.25.93,3.46Zm3.26,1.88c1.73-3.01.69-6.87-2.31-8.6-.96-.55-2.04-.84-3.14-.84-2.25,0-4.34,1.21-5.46,3.16-1.74,3.01-.69,6.87,2.31,8.6.96.55,2.05.84,3.14.84,2.25,0,4.34-1.21,5.46-3.16Z"/><path class="cls-1" d="m84.67,196.93c-.67,1.17-2.29,1.61-3.47.93-1.21-.7-1.63-2.25-.93-3.46.45-.78,1.29-1.27,2.2-1.27.44,0,.88.12,1.26.34.59.34,1.01.88,1.19,1.54.17.66.08,1.34-.25,1.92Zm3.25,1.88c.84-1.46,1.06-3.16.63-4.78-.44-1.62-1.48-2.98-2.95-3.82-.95-.55-2.04-.84-3.14-.84-2.24,0-4.34,1.21-5.46,3.16-1.73,3.01-.69,6.87,2.31,8.6.96.55,2.04.84,3.14.84,2.25,0,4.35-1.21,5.46-3.16Z"/><path class="cls-1" d="m100.42,196.93c-.67,1.16-2.28,1.61-3.46.93-1.22-.7-1.63-2.25-.93-3.46.45-.78,1.29-1.27,2.2-1.27.44,0,.87.12,1.26.34.58.34,1.01.89,1.18,1.54.18.66.08,1.34-.25,1.92Zm3.26,1.88c.84-1.46,1.06-3.16.62-4.78-.44-1.62-1.48-2.98-2.94-3.82-.96-.55-2.04-.84-3.14-.84-2.25,0-4.35,1.21-5.46,3.16-1.73,3.01-.69,6.87,2.31,8.6.96.55,2.04.84,3.14.84,2.25,0,4.34-1.21,5.46-3.16Z"/><path class="cls-1" d="m116.17,196.93c-.67,1.16-2.29,1.61-3.47.93-1.21-.7-1.63-2.25-.93-3.46.45-.78,1.29-1.27,2.2-1.27.43,0,.87.12,1.26.34.58.34,1.01.89,1.18,1.54.18.66.09,1.34-.25,1.92Zm3.25,1.88c.84-1.46,1.07-3.16.63-4.78-.44-1.62-1.48-2.98-2.94-3.82-.96-.55-2.04-.84-3.13-.84-2.25,0-4.34,1.21-5.46,3.16-1.73,3.01-.69,6.87,2.31,8.6.96.55,2.04.84,3.14.84,2.25,0,4.34-1.21,5.46-3.16Z"/><path class="cls-1" d="m131.92,196.93c-.67,1.17-2.28,1.61-3.46.93-1.21-.7-1.63-2.25-.93-3.46.46-.78,1.29-1.27,2.2-1.27.44,0,.87.12,1.26.34.59.34,1.01.88,1.19,1.54.17.66.08,1.34-.26,1.92Zm.95-6.72c-.96-.55-2.04-.84-3.14-.84-2.25,0-4.34,1.21-5.46,3.16-1.73,3.01-.69,6.87,2.32,8.6.96.55,2.04.84,3.14.84,2.25,0,4.34-1.21,5.46-3.16.85-1.46,1.06-3.16.62-4.78-.43-1.62-1.48-2.98-2.94-3.82Z"/><path class="cls-1" d="m30.89,181.05c-.67,1.16-2.29,1.61-3.47.93-1.21-.7-1.63-2.25-.93-3.46.45-.79,1.29-1.27,2.2-1.27.44,0,.88.12,1.27.34,1.21.7,1.63,2.25.93,3.46Zm-7.65-4.41c-1.73,3.01-.69,6.87,2.31,8.6.96.55,2.04.84,3.14.84,2.25,0,4.34-1.21,5.46-3.16,1.74-3.01.69-6.87-2.3-8.6-.96-.55-2.05-.84-3.15-.84-2.24,0-4.34,1.21-5.45,3.16Z"/><path class="cls-1" d="m46.64,181.05c-.67,1.16-2.28,1.61-3.46.93-1.21-.7-1.63-2.25-.93-3.46.45-.79,1.29-1.27,2.2-1.27.44,0,.88.12,1.27.34.59.34,1.01.89,1.18,1.54.18.66.08,1.34-.26,1.93Zm.95-6.72c-.96-.55-2.05-.84-3.14-.84-2.25,0-4.34,1.21-5.46,3.16-1.72,3.01-.69,6.87,2.32,8.6.95.55,2.04.84,3.13.84,2.25,0,4.34-1.21,5.46-3.16.84-1.46,1.07-3.16.62-4.78-.43-1.63-1.48-2.98-2.94-3.82Z"/><path class="cls-1" d="m62.4,181.05c-.66,1.16-2.28,1.61-3.46.93-1.21-.7-1.63-2.25-.93-3.46.46-.79,1.3-1.27,2.2-1.27.44,0,.88.12,1.26.34,1.21.7,1.63,2.25.93,3.46Zm.95-6.72c-.96-.55-2.04-.84-3.14-.84-2.25,0-4.34,1.21-5.46,3.15-1.74,3.01-.69,6.87,2.32,8.6.95.55,2.04.84,3.13.84,2.25,0,4.34-1.21,5.46-3.16,1.73-3.01.69-6.87-2.31-8.6Z"/><path class="cls-1" d="m78.15,181.05c-.67,1.16-2.29,1.61-3.46.93-1.21-.7-1.63-2.25-.93-3.46.45-.79,1.29-1.27,2.2-1.27.44,0,.88.12,1.26.34,1.21.7,1.63,2.25.93,3.46Zm.95-6.72c-.96-.55-2.04-.84-3.14-.84-2.25,0-4.33,1.21-5.46,3.15-1.73,3.01-.7,6.87,2.32,8.6.96.55,2.04.84,3.13.84,2.25,0,4.35-1.21,5.47-3.16,1.73-3.01.69-6.87-2.32-8.6Z"/><path class="cls-1" d="m93.9,181.05c-.67,1.16-2.28,1.61-3.46.93-1.21-.7-1.63-2.25-.93-3.46.45-.79,1.3-1.27,2.2-1.27.44,0,.87.12,1.26.34,1.21.7,1.62,2.25.93,3.46Zm.95-6.72c-.96-.55-2.04-.84-3.14-.84-2.25,0-4.34,1.21-5.46,3.16-1.73,3.01-.69,6.87,2.32,8.6.96.55,2.04.84,3.14.84,2.24,0,4.34-1.21,5.46-3.16,1.73-3.01.69-6.87-2.32-8.6Z"/><path class="cls-1" d="m109.65,181.05c-.67,1.16-2.27,1.61-3.46.93-1.21-.7-1.63-2.25-.93-3.46.45-.79,1.29-1.27,2.2-1.27.44,0,.88.12,1.26.34,1.21.7,1.63,2.25.93,3.46Zm.95-6.72c-.96-.55-2.04-.84-3.14-.84-2.25,0-4.34,1.21-5.46,3.15-1.73,3.01-.69,6.87,2.32,8.6.96.55,2.03.84,3.13.84,2.25,0,4.34-1.21,5.46-3.16,1.74-3.01.69-6.87-2.31-8.6Z"/><path class="cls-1" d="m125.41,181.05c-.67,1.16-2.28,1.61-3.46.93-1.21-.7-1.63-2.25-.93-3.46.46-.79,1.29-1.27,2.2-1.27.44,0,.88.12,1.27.34.58.34,1.01.89,1.18,1.54.18.66.08,1.34-.25,1.93Zm.95-6.72c-.96-.55-2.05-.84-3.14-.84-2.25,0-4.34,1.21-5.46,3.15-1.73,3.01-.69,6.87,2.32,8.6.95.55,2.04.84,3.13.84,2.25,0,4.34-1.21,5.46-3.16.84-1.46,1.06-3.16.62-4.78-.44-1.62-1.48-2.98-2.94-3.82Z"/><path class="cls-1" d="m141.16,181.05c-.67,1.16-2.28,1.61-3.46.93-1.22-.7-1.63-2.25-.93-3.46.45-.79,1.29-1.27,2.2-1.27.45,0,.88.12,1.27.34.59.34,1.01.89,1.19,1.54.17.66.08,1.34-.25,1.93Zm.95-6.72c-.96-.55-2.04-.84-3.15-.84-2.24,0-4.34,1.21-5.45,3.16-1.73,3.01-.69,6.87,2.31,8.6.96.55,2.04.84,3.13.84,2.25,0,4.35-1.21,5.47-3.16.84-1.46,1.06-3.16.62-4.78-.44-1.63-1.49-2.98-2.94-3.82Z"/><path class="cls-1" d="m39.86,165.17c-.66,1.17-2.29,1.62-3.46.94-1.21-.7-1.63-2.25-.93-3.47.45-.78,1.29-1.27,2.2-1.27.44,0,.88.12,1.26.34,1.21.7,1.63,2.25.93,3.46Zm-7.66-4.41c-1.73,3.01-.69,6.87,2.32,8.6.95.55,2.04.84,3.13.84,2.25,0,4.34-1.21,5.47-3.16,1.73-3.01.69-6.87-2.32-8.6-.96-.55-2.04-.84-3.14-.84-2.24,0-4.34,1.21-5.46,3.16Z"/><path class="cls-1" d="m55.61,165.17c-.67,1.17-2.28,1.61-3.46.94-1.21-.7-1.63-2.25-.93-3.47.45-.78,1.29-1.27,2.2-1.27.44,0,.88.12,1.26.34,1.21.7,1.63,2.25.93,3.46Zm-7.65-4.41c-1.74,3.01-.7,6.87,2.32,8.6.96.55,2.04.84,3.13.84,2.25,0,4.34-1.21,5.46-3.16,1.73-3.01.69-6.87-2.31-8.6-.96-.55-2.05-.84-3.14-.84-2.25,0-4.33,1.21-5.46,3.16Z"/><path class="cls-1" d="m71.36,165.17c-.66,1.17-2.28,1.62-3.46.94-1.21-.7-1.63-2.25-.93-3.47.45-.78,1.29-1.27,2.2-1.27.45,0,.88.12,1.27.34,1.21.7,1.62,2.25.93,3.46Zm-7.65-4.41c-1.73,3.01-.69,6.87,2.31,8.6.96.55,2.04.84,3.13.84,2.25,0,4.35-1.21,5.47-3.16,1.73-3.01.69-6.87-2.32-8.6-.96-.55-2.04-.84-3.14-.84-2.24,0-4.33,1.21-5.45,3.16Z"/><path class="cls-1" d="m87.11,165.17c-.66,1.17-2.28,1.62-3.45.94-1.22-.7-1.63-2.25-.93-3.47.45-.78,1.29-1.27,2.2-1.27.44,0,.88.12,1.27.34,1.21.7,1.62,2.25.93,3.46Zm-7.66-4.41c-1.72,3.01-.69,6.87,2.32,8.6.96.55,2.04.84,3.13.84,2.25,0,4.35-1.21,5.46-3.16,1.74-3.01.69-6.87-2.31-8.6-.96-.55-2.04-.84-3.14-.84-2.25,0-4.34,1.21-5.46,3.16Z"/><path class="cls-1" d="m102.87,165.17c-.67,1.17-2.29,1.61-3.46.94-1.21-.7-1.63-2.25-.94-3.47.46-.78,1.29-1.27,2.2-1.27.44,0,.88.12,1.26.34,1.2.7,1.62,2.25.93,3.46Zm-7.66-4.41c-1.73,3.01-.69,6.87,2.32,8.6.95.55,2.04.84,3.13.84,2.25,0,4.34-1.21,5.47-3.16,1.73-3.01.69-6.87-2.32-8.6-.96-.55-2.05-.84-3.14-.84-2.25,0-4.34,1.21-5.46,3.16Z"/><path class="cls-1" d="m118.62,165.17c-.67,1.17-2.29,1.61-3.46.94-1.21-.7-1.63-2.25-.93-3.47.45-.78,1.29-1.27,2.2-1.27.44,0,.88.12,1.26.34,1.21.7,1.63,2.25.93,3.46Zm-7.65-4.41c-1.74,3.01-.7,6.87,2.31,8.6.96.55,2.04.84,3.14.84,2.25,0,4.34-1.21,5.46-3.16,1.73-3.01.69-6.87-2.31-8.6-.96-.55-2.04-.84-3.14-.84-2.25,0-4.34,1.21-5.45,3.16Z"/><path class="cls-1" d="m134.37,165.17c-.67,1.17-2.29,1.61-3.46.94-1.21-.7-1.63-2.25-.93-3.47.46-.78,1.29-1.27,2.2-1.27.44,0,.87.12,1.26.34,1.21.7,1.63,2.25.93,3.46Zm-7.66-4.41c-1.74,3.01-.7,6.87,2.32,8.6.95.55,2.04.84,3.14.84,2.25,0,4.34-1.21,5.46-3.16,1.73-3.01.69-6.87-2.32-8.6-.95-.55-2.04-.84-3.13-.84-2.25,0-4.34,1.21-5.46,3.16Z"/><path class="cls-1" d="m150.13,165.17c-.67,1.17-2.29,1.61-3.46.94-1.22-.7-1.63-2.25-.93-3.47.45-.78,1.29-1.27,2.2-1.27.44,0,.88.12,1.26.34,1.21.7,1.62,2.25.93,3.46Zm.94-6.72c-.95-.55-2.04-.84-3.14-.84-2.25,0-4.34,1.21-5.46,3.16-1.74,3.01-.7,6.87,2.31,8.6.96.55,2.04.84,3.14.84,2.25,0,4.34-1.21,5.46-3.16,1.73-3.01.69-6.87-2.32-8.6Z"/><path class="cls-1" d="m49.15,149.3c-.67,1.16-2.28,1.61-3.46.93-1.22-.7-1.63-2.25-.94-3.46.46-.78,1.29-1.27,2.2-1.27.44,0,.88.12,1.26.34.59.34,1.01.88,1.19,1.54.17.65.09,1.34-.25,1.92Zm.95-6.72c-.96-.55-2.04-.84-3.14-.84-2.25,0-4.34,1.21-5.46,3.16-1.73,3.01-.69,6.87,2.32,8.6.96.55,2.04.84,3.14.84,2.24,0,4.33-1.21,5.45-3.16.84-1.46,1.06-3.16.63-4.78-.44-1.62-1.48-2.98-2.94-3.82Z"/><path class="cls-1" d="m64.9,149.3c-.67,1.17-2.28,1.61-3.46.93-1.21-.7-1.63-2.25-.93-3.46.46-.78,1.29-1.27,2.2-1.27.44,0,.88.12,1.26.34,1.21.7,1.63,2.25.93,3.46Zm.94-6.72c-.96-.55-2.04-.84-3.13-.84-2.25,0-4.34,1.21-5.46,3.15-1.73,3.01-.69,6.87,2.32,8.6.96.55,2.04.84,3.14.84,2.25,0,4.34-1.21,5.46-3.16,1.74-3.01.69-6.87-2.32-8.6Z"/><path class="cls-1" d="m80.65,149.3c-.67,1.16-2.28,1.61-3.46.93-1.21-.7-1.63-2.25-.93-3.46.45-.78,1.29-1.27,2.2-1.27.44,0,.88.12,1.27.34.59.34,1.01.88,1.18,1.54.18.65.08,1.34-.25,1.92Zm.95-6.72c-.96-.55-2.04-.84-3.14-.84-2.25,0-4.33,1.21-5.46,3.16-1.73,3.01-.69,6.87,2.31,8.6.96.55,2.04.84,3.14.84,2.25,0,4.34-1.21,5.46-3.16.84-1.46,1.06-3.16.62-4.78-.44-1.62-1.48-2.98-2.94-3.82Z"/><path class="cls-1" d="m96.41,149.3c-.67,1.16-2.28,1.62-3.47.93-1.21-.7-1.63-2.25-.93-3.46.45-.78,1.29-1.27,2.2-1.27.45,0,.88.12,1.27.34,1.21.7,1.63,2.25.93,3.46Zm.94-6.72c-.96-.55-2.04-.84-3.14-.84-2.24,0-4.33,1.21-5.45,3.16-1.73,3.01-.69,6.87,2.31,8.6.96.55,2.04.84,3.13.84,2.25,0,4.35-1.21,5.46-3.16,1.74-3.01.69-6.87-2.31-8.6Z"/><path class="cls-1" d="m112.16,149.3c-.67,1.16-2.28,1.62-3.46.93-1.21-.7-1.63-2.25-.93-3.46.45-.78,1.29-1.27,2.2-1.27.44,0,.87.12,1.27.34,1.21.7,1.62,2.25.93,3.46Zm.95-6.72c-.96-.55-2.04-.84-3.14-.84-2.25,0-4.34,1.21-5.46,3.16-1.73,3.01-.69,6.87,2.32,8.6.95.55,2.04.84,3.13.84,2.25,0,4.34-1.21,5.46-3.16,1.73-3.01.69-6.87-2.31-8.6Z"/><path class="cls-1" d="m127.91,149.3c-.67,1.16-2.29,1.61-3.46.93-1.21-.7-1.63-2.25-.93-3.46.45-.78,1.29-1.27,2.2-1.27.44,0,.87.12,1.27.34.58.34,1.01.88,1.18,1.54.18.65.08,1.34-.25,1.92Zm.95-6.72c-.96-.55-2.04-.84-3.14-.84-2.25,0-4.34,1.21-5.46,3.16-1.73,3.01-.69,6.87,2.32,8.6.95.55,2.03.84,3.13.84,2.25,0,4.34-1.21,5.46-3.16.84-1.46,1.06-3.16.63-4.78-.44-1.62-1.48-2.98-2.94-3.82Z"/><path class="cls-1" d="m139.28,146.77c.45-.78,1.29-1.27,2.2-1.27.44,0,.88.12,1.27.34,1.21.7,1.63,2.25.93,3.46-.67,1.17-2.29,1.61-3.47.93-1.21-.7-1.62-2.25-.93-3.46Zm-.95,6.73c.96.55,2.04.84,3.13.84,2.25,0,4.34-1.21,5.46-3.16,1.73-3.01.69-6.87-2.32-8.6-.96-.55-2.04-.84-3.14-.84-2.25,0-4.33,1.21-5.45,3.15-1.74,3.01-.7,6.87,2.31,8.61Z"/><path class="cls-1" d="m159.42,149.3c-.67,1.17-2.28,1.61-3.46.93-1.21-.7-1.63-2.25-.93-3.46.45-.78,1.3-1.27,2.2-1.27.44,0,.88.12,1.26.34,1.21.7,1.62,2.25.93,3.46Zm.95-6.72c-.96-.55-2.04-.84-3.14-.84-2.25,0-4.34,1.21-5.46,3.15-1.73,3.01-.7,6.87,2.32,8.6.96.55,2.04.84,3.13.84,2.25,0,4.34-1.21,5.46-3.16,1.73-3.01.69-6.87-2.31-8.6Z"/></g><rect class="cls-1" x="258.46" width="3.44" height="237.45"/></svg>